<?xml version="1.0" encoding="utf-8"?>
<!-- Generator: Adobe Illustrator 16.0.1, SVG Export Plug-In . SVG Version: 6.00 Build 0)  -->
<!DOCTYPE svg PUBLIC "-//W3C//DTD SVG 1.1//EN" "http://www.w3.org/Graphics/SVG/1.1/DTD/svg11.dtd">
<svg version="1.1" id="Layer_1" xmlns="http://www.w3.org/2000/svg" xmlns:xlink="http://www.w3.org/1999/xlink" x="0px" y="0px"
	 width="52px" height="52px" viewBox="0 0 52 52" enable-background="new 0 0 52 52" xml:space="preserve">
<path fill="#FFFFFF" d="M26,5.049C14.419,5.049,5.049,14.421,5.049,26c0,11.581,9.372,20.951,20.951,20.951
	c11.58,0,20.951-9.372,20.951-20.951C46.951,14.419,37.579,5.049,26,5.049z M26,52C11.641,52,0,40.359,0,26S11.641,0,26,0
	s26,11.641,26,26S40.359,52,26,52z M37.031,18.927l4.053,4.071l-15.21,15.138l-15.21-15.138l4.053-4.071l11.157,11.104
	L37.031,18.927z"/>
</svg>
