<?xml version="1.0" encoding="utf-8"?>
<!-- Generator: Adobe Illustrator 16.0.1, SVG Export Plug-In . SVG Version: 6.00 Build 0)  -->
<!DOCTYPE svg PUBLIC "-//W3C//DTD SVG 1.1//EN" "http://www.w3.org/Graphics/SVG/1.1/DTD/svg11.dtd">
<svg version="1.1" id="Layer_1" xmlns="http://www.w3.org/2000/svg" xmlns:xlink="http://www.w3.org/1999/xlink" x="0px" y="0px"
	 width="52px" height="52px" viewBox="0 0 52 52" enable-background="new 0 0 52 52" xml:space="preserve">
<path fill="#FFFFFF" d="M26,5.049C14.421,5.049,5.049,14.419,5.049,26c0,11.579,9.37,20.951,20.951,20.951
	c11.579,0,20.951-9.37,20.951-20.951C46.951,14.421,37.581,5.049,26,5.049z M26,0c14.359,0,26,11.641,26,26
	c0,14.359-11.641,26-26,26S0,40.359,0,26C0,11.641,11.641,0,26,0z M21.969,26.126l11.104,11.157l-4.071,4.053l-15.139-15.21
	l15.139-15.209l4.071,4.052L21.969,26.126z"/>
</svg>
