<?xml version="1.0" encoding="utf-8"?>
<!-- Generator: Adobe Illustrator 16.0.1, SVG Export Plug-In . SVG Version: 6.00 Build 0)  -->
<!DOCTYPE svg PUBLIC "-//W3C//DTD SVG 1.1//EN" "http://www.w3.org/Graphics/SVG/1.1/DTD/svg11.dtd">
<svg version="1.1" id="Layer_1" xmlns="http://www.w3.org/2000/svg" xmlns:xlink="http://www.w3.org/1999/xlink" x="0px" y="0px"
	 width="32px" height="32px" viewBox="0 0 32 32" enable-background="new 0 0 32 32" xml:space="preserve">
<g>
	<path fill="#FFFFFF" d="M16,3.106C8.874,3.106,3.106,8.873,3.106,16c0,7.125,5.767,12.893,12.894,12.893
		c7.125,0,12.893-5.766,12.893-12.893C28.893,8.874,23.127,3.106,16,3.106z M16,0c8.836,0,16,7.163,16,16s-7.164,16-16,16
		C7.163,32,0,24.837,0,16S7.163,0,16,0z M13.52,16.078l6.834,6.866l-2.506,2.494l-9.316-9.36l9.316-9.36l2.506,2.494L13.52,16.078z"
		/>
</g>
</svg>
