<?xml version="1.0" encoding="utf-8"?>
<!-- Generator: Adobe Illustrator 16.0.1, SVG Export Plug-In . SVG Version: 6.00 Build 0)  -->
<!DOCTYPE svg PUBLIC "-//W3C//DTD SVG 1.1//EN" "http://www.w3.org/Graphics/SVG/1.1/DTD/svg11.dtd">
<svg version="1.1" id="Layer_1" xmlns="http://www.w3.org/2000/svg" xmlns:xlink="http://www.w3.org/1999/xlink" x="0px" y="0px"
	 width="52px" height="52px" viewBox="0 0 52 52" enable-background="new 0 0 52 52" xml:space="preserve">
<path fill="#FFFFFF" d="M5.049,26c0,11.581,9.372,20.951,20.951,20.951c11.581,0,20.951-9.372,20.951-20.951
	c0-11.581-9.372-20.951-20.951-20.951C14.419,5.049,5.049,14.421,5.049,26z M52,26c0,14.359-11.641,26-26,26S0,40.359,0,26
	S11.641,0,26,0S52,11.641,52,26z M18.927,14.969l4.071-4.052l15.138,15.209l-15.138,15.21l-4.071-4.053l11.104-11.157L18.927,14.969
	z"/>
</svg>
