<?xml version="1.0" encoding="utf-8"?>
<!-- Generator: Adobe Illustrator 16.0.1, SVG Export Plug-In . SVG Version: 6.00 Build 0)  -->
<!DOCTYPE svg PUBLIC "-//W3C//DTD SVG 1.1//EN" "http://www.w3.org/Graphics/SVG/1.1/DTD/svg11.dtd">
<svg version="1.1" id="Layer_1" xmlns="http://www.w3.org/2000/svg" xmlns:xlink="http://www.w3.org/1999/xlink" x="0px" y="0px"
	 width="32px" height="32px" viewBox="0 0 32 32" enable-background="new 0 0 32 32" xml:space="preserve">
<g>
	<path fill="#FFFFFF" d="M28.894,16c0-7.126-5.767-12.894-12.894-12.894C8.875,3.106,3.107,8.873,3.107,16
		c0,7.125,5.767,12.893,12.893,12.893C23.126,28.893,28.894,23.127,28.894,16z M32,16c0,8.836-7.163,16-16,16S0,24.836,0,16
		C0,7.163,7.163,0,16,0S32,7.163,32,16z M15.922,13.52l-6.866,6.834l-2.494-2.506l9.36-9.316l9.36,9.316l-2.494,2.506L15.922,13.52z
		"/>
</g>
</svg>
