<?xml version="1.0" encoding="utf-8"?>
<!-- Generator: Adobe Illustrator 16.0.1, SVG Export Plug-In . SVG Version: 6.00 Build 0)  -->
<!DOCTYPE svg PUBLIC "-//W3C//DTD SVG 1.1//EN" "http://www.w3.org/Graphics/SVG/1.1/DTD/svg11.dtd">
<svg version="1.1" id="Layer_1" xmlns="http://www.w3.org/2000/svg" xmlns:xlink="http://www.w3.org/1999/xlink" x="0px" y="0px"
	 width="52px" height="52px" viewBox="0 0 52 52" enable-background="new 0 0 52 52" xml:space="preserve">
<path d="M46.951,26c0-11.581-9.372-20.951-20.951-20.951C14.419,5.049,5.049,14.421,5.049,26c0,11.58,9.372,20.951,20.951,20.951
	C37.581,46.951,46.951,37.579,46.951,26z M0,26C0,11.641,11.641,0,26,0s26,11.641,26,26S40.359,52,26,52S0,40.359,0,26z
	 M33.073,37.031l-4.071,4.053l-15.138-15.21l15.138-15.21l4.071,4.053L21.969,25.874L33.073,37.031z"/>
</svg>
