<?xml version="1.0" encoding="utf-8"?>
<!-- Generator: Adobe Illustrator 16.0.1, SVG Export Plug-In . SVG Version: 6.00 Build 0)  -->
<!DOCTYPE svg PUBLIC "-//W3C//DTD SVG 1.1//EN" "http://www.w3.org/Graphics/SVG/1.1/DTD/svg11.dtd">
<svg version="1.1" id="Layer_1" xmlns="http://www.w3.org/2000/svg" xmlns:xlink="http://www.w3.org/1999/xlink" x="0px" y="0px"
	 width="707.457px" height="99.848px" viewBox="0 0 707.457 99.848" enable-background="new 0 0 707.457 99.848"
	 xml:space="preserve">
<rect y="0" fill="none" width="697.914" height="99.848"/>
<g>
	<path fill="none" stroke="#000000" stroke-width="1.5" stroke-linecap="round" stroke-linejoin="round" stroke-miterlimit="10" d="
		M626.998,32.081l-19.5,27.732c0,0-4,6.018,5.5,6.643c8.459,0.558,43.467,2.228,56.35,1.744c3.15-0.119,7.088-0.807,9.588-4.807
		c5.139-8.22,13.068-24.283,15.062-31.312c0.354-1.252,0.223-3.441-3.539-3.791c-14.795-1.37-53.164-0.918-56.629-0.376
		C629.412,28.605,626.998,32.081,626.998,32.081z"/>
	<path fill="none" stroke="#000000" stroke-width="1.5" stroke-linecap="round" stroke-linejoin="round" stroke-miterlimit="10" d="
		M606.734,61.744c0,0-1.236,12.068-1.736,16.703"/>
	<path fill="none" stroke="#000000" stroke-width="1.5" stroke-linecap="round" stroke-linejoin="round" stroke-miterlimit="10" d="
		M694.126,30.735c0,0,1.869,9.211,2.369,14.792"/>
	
		<line fill="none" stroke="#000000" stroke-width="1.5" stroke-linecap="round" stroke-linejoin="round" stroke-miterlimit="10" x1="674.498" y1="70.08" x2="675.164" y2="79.447"/>
	
		<line fill="none" stroke="#000000" stroke-width="1.5" stroke-linecap="round" stroke-linejoin="round" stroke-miterlimit="10" x1="679.498" y1="66.58" x2="680.664" y2="76.764"/>
	<g>
		<path d="M634.396,32.573h6.545l-1.34,1.984h-4.176l-1.414,2.096h3.553l-1.326,1.968h-3.553l-1.619,2.4h4.336l-1.338,1.983h-6.703
			L634.396,32.573z"/>
		<path d="M640.359,40.077c0.156,0.32,0.393,0.582,0.701,0.784c0.312,0.203,0.688,0.304,1.123,0.304c0.49,0,0.918-0.091,1.279-0.271
			c0.363-0.183,0.648-0.428,0.857-0.736c0.107-0.16,0.166-0.298,0.176-0.416c0.01-0.117-0.021-0.221-0.094-0.312
			s-0.174-0.177-0.307-0.257s-0.279-0.168-0.438-0.264l-0.955-0.576c-0.207-0.105-0.377-0.246-0.514-0.416
			c-0.135-0.17-0.225-0.371-0.266-0.6c-0.045-0.229-0.021-0.496,0.066-0.8c0.088-0.305,0.262-0.648,0.52-1.032
			c0.289-0.426,0.654-0.829,1.096-1.208c0.441-0.378,0.92-0.709,1.438-0.992c0.516-0.282,1.055-0.504,1.615-0.664
			s1.113-0.24,1.658-0.24c0.607,0,1.129,0.118,1.562,0.353s0.723,0.576,0.869,1.023l-2.189,1.488
			c-0.162-0.267-0.367-0.472-0.615-0.616c-0.25-0.144-0.584-0.216-1-0.216c-0.402,0-0.781,0.083-1.135,0.248
			c-0.352,0.166-0.629,0.398-0.83,0.696c-0.105,0.16-0.158,0.296-0.152,0.408c0.004,0.111,0.047,0.214,0.131,0.304
			c0.082,0.091,0.193,0.176,0.338,0.256s0.295,0.168,0.455,0.264l0.961,0.544c0.467,0.257,0.732,0.608,0.801,1.057
			c0.064,0.448-0.15,1.04-0.646,1.775c-0.295,0.438-0.662,0.852-1.102,1.24c-0.438,0.389-0.924,0.73-1.459,1.024
			c-0.533,0.294-1.102,0.527-1.705,0.704c-0.604,0.176-1.217,0.264-1.834,0.264c-0.684,0-1.279-0.125-1.787-0.376
			c-0.51-0.251-0.865-0.626-1.07-1.128L640.359,40.077z"/>
		<path d="M651.136,37.853c0.584-0.864,1.236-1.636,1.961-2.312s1.471-1.25,2.24-1.72c0.771-0.469,1.539-0.827,2.309-1.072
			c0.768-0.246,1.486-0.368,2.158-0.368c0.65,0,1.148,0.137,1.492,0.408c0.346,0.272,0.57,0.589,0.678,0.952l-2.275,1.456
			c-0.104-0.245-0.24-0.438-0.412-0.576c-0.174-0.139-0.445-0.208-0.82-0.208c-0.361,0-0.754,0.077-1.172,0.232
			c-0.42,0.154-0.844,0.376-1.271,0.664c-0.43,0.288-0.85,0.64-1.264,1.056c-0.416,0.416-0.799,0.886-1.15,1.408
			c-0.727,1.078-1.061,1.912-1,2.504c0.059,0.592,0.473,0.888,1.24,0.888c0.438,0,0.871-0.085,1.301-0.256
			c0.43-0.17,0.865-0.395,1.311-0.672l0.334,1.424c-0.783,0.512-1.541,0.896-2.271,1.152c-0.732,0.256-1.426,0.384-2.074,0.384
			c-0.672,0-1.23-0.115-1.674-0.344c-0.441-0.229-0.734-0.568-0.881-1.017c-0.146-0.447-0.123-1.005,0.068-1.672
			C650.156,39.499,650.546,38.728,651.136,37.853z"/>
	</g>
</g>
<g>
	<path stroke="#000000" stroke-width="1.5" stroke-linecap="round" stroke-linejoin="round" stroke-miterlimit="10" d="
		M369.333,60.725c0,0-2.146,2.399-2.248,3.778c-0.103,1.378,0.869,1.583,1.635,1.276c0.766-0.306,4.34-4.221,8.578-6.161
		c0,0,0.766-1.09-0.868-1.447c0,0-1.072,1.378-3.218,1.635c-2.145,0.255-1.838,0.356-3.215,0.408
		C369.998,60.215,369.591,60.422,369.333,60.725z"/>
	<g>
		<g>
			<g>
				<path fill="#FFFFFF" d="M367.134,64.209c0.119,0.158,0.181,0.247,0.248,0.234c0.078-0.026,0.438-0.058,0.438-0.058
					c0.014-0.018,0.325,0.038,0.355,0.066c0.033,0.023,0.104-0.056,0.289-0.152c0.078-0.17,0.076-0.301-0.019-0.365
					c-0.108-0.094-0.641-0.16-0.63-0.134c-0.004-0.01-0.484,0.031-0.568,0.074C367.164,63.899,367.139,64.01,367.134,64.209z"/>
			</g>
		</g>
	</g>
	<g>
		<g>
			<g>
				<path fill="#FFFFFF" d="M367.683,63.242c0.104,0.174,0.15,0.264,0.227,0.262c0.082-0.013,0.473-0.037,0.471-0.025
					c0,0,0.099,0.001,0.205,0.002c0.096,0.018,0.192,0.037,0.236,0.045c0.065,0.008,0.127-0.084,0.256-0.247
					c-0.002-0.189-0.027-0.298-0.117-0.322c-0.047-0.011-0.196-0.045-0.33-0.062c-0.127,0-0.245,0-0.245,0
					c-0.003-0.013-0.464,0.006-0.552,0.03C367.75,62.936,367.71,63.049,367.683,63.242z"/>
			</g>
		</g>
	</g>
	<g>
		<g>
			<g>
				<path fill="#FFFFFF" d="M368.38,62.243c0.088,0.179,0.138,0.277,0.216,0.278c0.087-0.009,0.506,0.009,0.506,0.009
					c0.009-0.012,0.396,0.068,0.451,0.096c0.052,0.025,0.122-0.056,0.29-0.178c0.043-0.188,0.027-0.311-0.07-0.364
					c-0.107-0.062-0.621-0.152-0.617-0.136c0,0-0.494-0.032-0.589-0.011C368.478,61.945,368.431,62.05,368.38,62.243z"/>
			</g>
		</g>
	</g>
	<g>
		<g>
			<g>
				<path fill="#FFFFFF" d="M369.078,61.253c0.102,0.181,0.149,0.271,0.239,0.275c0.056-0.001,0.188-0.004,0.317-0.008
					c0.129,0.008,0.246,0.015,0.246,0.015s0.117,0.009,0.244,0.02c0.119,0.026,0.242,0.056,0.293,0.066
					c0.082,0.014,0.155-0.074,0.293-0.231c-0.014-0.193-0.043-0.306-0.143-0.333c-0.064-0.016-0.217-0.052-0.365-0.085
					c-0.147-0.011-0.283-0.02-0.283-0.02s-0.133-0.009-0.28-0.02c-0.146,0.005-0.296,0.01-0.359,0.012
					C369.185,60.95,369.128,61.062,369.078,61.253z"/>
			</g>
		</g>
	</g>
	<path fill="none" stroke="#000000" stroke-width="1.5" stroke-linecap="round" stroke-linejoin="round" stroke-miterlimit="10" d="
		M368.822,60.203c0,0-10.468,10.377-10.468,11.126s5.888,1.77,9.155,2.314c3.268,0.544,7.916,0.136,9.345-0.409
		s4.298-2.111,6.817-4.221c2.519-2.11,12.332-9.293,13.145-10.025c0.875-0.788,1.297-1.549,1.092-2.911s-2.857-6.332-3.947-7.147
		c-1.09-0.816-10.416,2.586-12.936,4.151c0,0-1.911,3.678-4.566,5.379c-2.654,1.702-7.279,1.226-8.914,1.089L368.822,60.203z"/>
	<path fill="none" stroke="#000000" stroke-width="1.5" stroke-linecap="round" stroke-linejoin="round" stroke-miterlimit="10" d="
		M367.544,65.752c0,0-4.328,4.472-5.344,6.985"/>
	<path fill="none" stroke="#000000" stroke-width="1.5" stroke-linecap="round" stroke-linejoin="round" stroke-miterlimit="10" d="
		M367.544,59.551c0,0-12.119,9.939-12.254,12.937c-0.135,2.996,0.613,3.812,0.613,3.812"/>
	<path fill="none" stroke="#000000" stroke-width="1.5" stroke-linecap="round" stroke-linejoin="round" stroke-miterlimit="10" d="
		M343.717,75.823c0,0,9.396,0.136,11.098,0.476c1.701,0.342,2.638-1.092,3.771-1.771c1.131-0.681,2.621-0.678,2.824,0.751
		c0.205,1.43-1.369,3.541-3.574,3.2c-2.203-0.34-7.582-1.157-14.119-1.226"/>
	<path fill="none" stroke="#000000" stroke-width="1.5" stroke-linecap="round" stroke-linejoin="round" stroke-miterlimit="10" d="
		M358.966,78.509c0,0,7.744,3.236,11.156,3.372c3.414,0.137,8.314,0.886,19.072-1.531s10.758-1.191,10.758-1.191"/>
	<path fill="none" stroke="#000000" stroke-width="1.5" stroke-linecap="round" stroke-linejoin="round" stroke-miterlimit="10" d="
		M377.248,58.989c0,0,6.569-7.2,16.782-9.583"/>
	<path fill="none" stroke="#000000" stroke-width="1.5" stroke-linecap="round" stroke-linejoin="round" stroke-miterlimit="10" d="
		M381.905,50.496c0,0,8.585-3.268,9.81-7.081c1.226-3.812,0.545-6.059,0.545-6.059"/>
	<path fill="none" stroke="#000000" stroke-width="1.5" stroke-linecap="round" stroke-linejoin="round" stroke-miterlimit="10" d="
		M381.707,46.002c0.953,5.312-1.73,8.79-1.73,8.79c-5.555,6.598-11.665,5.583-12.898,4.197c-1.089-1.225,2.229-4.817,2.229-4.817
		c1.337-1.429,2.731-5.787,3.177-7.353c0.446-1.566,0.371-1.293,2.686-4.29c2.315-2.997,11.098-10.145,13.004-10.961
		s8.102-0.272,8.102-0.272s16.305,0.324,18.553,0.068c2.246-0.255,5.514,0.102,7.914,1.226c2.398,1.124,15.982,5.412,20.578,5.821"
		/>
	<path fill="none" stroke="#000000" stroke-width="1.5" stroke-linecap="round" stroke-linejoin="round" stroke-miterlimit="10" d="
		M386.242,32.786c0,0-3.923-0.195-6.646,1.644c-2.724,1.838-12.728,9.055-14.296,10.927c-1.567,1.872-4.426,7.863-6.605,9.702
		c-2.179,1.838-5.275,6.06-4.238,7.147c1.039,1.089,3.914,1.873,7.847,0.255c3.932-1.617,4.774-3.472,4.774-3.472"/>
	<path fill="none" stroke="#000000" stroke-width="1.5" stroke-linecap="round" stroke-linejoin="round" stroke-miterlimit="10" d="
		M391.216,44.427c0,0,11.322,4.706,15.338,2.8c4.02-1.906,3.473-5.65,3.473-5.65"/>
	<path fill="none" stroke="#000000" stroke-width="1.5" stroke-linecap="round" stroke-linejoin="round" stroke-miterlimit="10" d="
		M393.144,48.805c0,0,5.854-1.829,11.914-0.818c0,0,3.064,2.439,9.26,3.394c6.195,0.953,4.748,0.562,4.748,0.562
		s6.688,2.772,8.322,9.854l-0.406,0.65c0,0-12.596,1.571-18.246,3.457c-5.652,1.885-9.193,5.153-9.736,7.604
		c-0.545,2.451-0.885,5.106,2.111,5.924c2.994,0.816,13.479,0.682,17.631,0c4.152-0.683,12.664-3.474,18.518-3.745"/>
	<path fill="none" stroke="#000000" stroke-width="1.5" stroke-linecap="round" stroke-linejoin="round" stroke-miterlimit="10" d="
		M426.982,62.447c0,0,1.326-1.974,4.594-2.435"/>
</g>
<g>
	<g>
		<g>
			<g>
				<path fill="#FFFFFF" d="M497.552,64.38c0.121,0.158,0.184,0.246,0.25,0.234c0.078-0.027,0.441-0.058,0.441-0.058
					c0.014-0.02,0.328,0.038,0.357,0.065c0.033,0.024,0.105-0.055,0.291-0.15c0.076-0.172,0.074-0.302-0.02-0.367
					c-0.109-0.094-0.646-0.161-0.635-0.133c-0.004-0.011-0.488,0.031-0.572,0.073C497.583,64.07,497.558,64.182,497.552,64.38z"/>
			</g>
		</g>
	</g>
	<g>
		<g>
			<g>
				<path fill="#FFFFFF" d="M498.105,63.406c0.105,0.174,0.152,0.264,0.229,0.262c0.082-0.013,0.477-0.038,0.475-0.025
					c0,0,0.1,0.001,0.207,0.002c0.098,0.019,0.193,0.037,0.238,0.046c0.066,0.008,0.129-0.084,0.256-0.247
					c-0.002-0.189-0.027-0.299-0.117-0.322c-0.049-0.012-0.197-0.046-0.332-0.063c-0.129,0-0.246,0-0.246,0
					c-0.004-0.013-0.469,0.006-0.557,0.031C498.173,63.1,498.134,63.214,498.105,63.406z"/>
			</g>
		</g>
	</g>
	<g>
		<g>
			<g>
				<path fill="#FFFFFF" d="M498.808,62.4c0.088,0.179,0.139,0.276,0.219,0.276c0.088-0.009,0.51,0.01,0.51,0.01
					c0.008-0.014,0.396,0.067,0.453,0.096c0.053,0.025,0.123-0.056,0.291-0.177c0.043-0.188,0.027-0.312-0.07-0.365
					c-0.107-0.064-0.625-0.154-0.619-0.137c0,0-0.498-0.032-0.594-0.012C498.908,62.102,498.861,62.207,498.808,62.4z"/>
			</g>
		</g>
	</g>
	<g>
		<g>
			<g>
				<path fill="#FFFFFF" d="M499.509,61.404c0.104,0.18,0.15,0.271,0.24,0.275c0.057-0.002,0.191-0.005,0.322-0.009
					c0.129,0.009,0.246,0.016,0.246,0.016s0.117,0.009,0.246,0.019c0.121,0.028,0.244,0.056,0.297,0.068
					c0.084,0.014,0.154-0.073,0.295-0.232c-0.016-0.193-0.045-0.305-0.145-0.333c-0.064-0.015-0.219-0.051-0.369-0.086
					c-0.146-0.01-0.283-0.02-0.283-0.02s-0.135-0.01-0.283-0.021c-0.146,0.005-0.297,0.011-0.361,0.014
					C499.619,61.101,499.562,61.213,499.509,61.404z"/>
			</g>
		</g>
	</g>
	<path fill="none" stroke="#000000" stroke-width="1.5" stroke-linecap="round" stroke-linejoin="round" stroke-miterlimit="10" d="
		M502.171,57.51l-2.92,2.837c0,0-10.541,10.449-10.541,11.204s5.928,1.782,9.219,2.331c3.291,0.55,7.973,0.138,9.412-0.412
		c1.439-0.549,4.328-2.125,6.863-4.25c2.537-2.125,12.42-9.357,13.238-10.095c0.879-0.794,1.305-1.56,1.098-2.931
		c-0.088-0.589-0.633-1.85-1.312-3.161"/>
	<path fill="none" stroke="#000000" stroke-width="1.5" stroke-linecap="round" stroke-linejoin="round" stroke-miterlimit="10" d="
		M497.138,66.822c-1.316,1.441-3.812,4.311-4.553,6.146"/>
	<path fill="none" stroke="#000000" stroke-width="1.5" stroke-linecap="round" stroke-linejoin="round" stroke-miterlimit="10" d="
		M486.244,76.554c0,0-0.752-0.822-0.615-3.84c0.137-3.017,12.34-13.024,12.34-13.024s3.152-2.622,4.525-3.702"/>
	<path fill="none" stroke="#000000" stroke-width="1.5" stroke-linecap="round" stroke-linejoin="round" stroke-miterlimit="10" d="
		M473.972,76.075c0,0,9.461,0.137,11.174,0.479c1.717,0.343,2.658-1.101,3.799-1.785c1.139-0.687,2.639-0.684,2.846,0.756
		c0.205,1.439-1.381,3.564-3.6,3.223c-2.221-0.343-7.637-1.165-14.219-1.233"/>
	<path fill="none" stroke="#000000" stroke-width="1.5" stroke-linecap="round" stroke-linejoin="round" stroke-miterlimit="10" d="
		M489.33,78.78c0,0,7.799,3.258,11.234,3.396c3.436,0.139,8.371,0.892,19.203-1.542c10.832-2.433,10.832-1.199,10.832-1.199"/>
	<path fill="none" stroke="#000000" stroke-width="1.5" stroke-linecap="round" stroke-linejoin="round" stroke-miterlimit="10" d="
		M536.66,51.819c1.35,0.663,4.18,1.893,8.406,2.935c2.238,0.553,11.312,2.879,13.162,7.198l-0.41,0.654
		c0,0-12.684,1.583-18.373,3.48c-5.689,1.898-9.256,5.189-9.805,7.657s-0.893,5.142,2.125,5.965s13.574,0.687,17.756,0
		c4.184-0.686,12.75-3.497,18.646-3.771"/>
	<path fill="none" stroke="#000000" stroke-width="1.5" stroke-linecap="round" stroke-linejoin="round" stroke-miterlimit="10" d="
		M512.425,58.798c0,0,9.469-3.291,10.703-7.129c0.336-1.05,0.531-1.982,0.635-2.784"/>
	<path fill="none" stroke="#000000" stroke-width="1.5" stroke-linecap="round" stroke-linejoin="round" stroke-miterlimit="10" d="
		M512.228,54.273c0.959,5.347-1.742,8.852-1.742,8.852c-5.594,6.643-11.746,5.621-12.988,4.227
		c-1.096-1.233,2.244-4.851,2.244-4.851c1.346-1.439,2.752-5.827,3.199-7.404c0.449-1.576,0.373-1.303,2.705-4.319
		c2.33-3.018,11.176-10.215,13.094-11.037c1.92-0.823,8.16-0.274,8.16-0.274s4.434,0.089,9.014,0.138"/>
	<path fill="none" stroke="#000000" stroke-width="1.5" stroke-linecap="round" stroke-linejoin="round" stroke-miterlimit="10" d="
		M571.494,45.087c-6.17-0.926-16.195-5.535-16.195-5.535c-7.736-3.227-16.396-5.911-18.768-5.776
		c-3.6,0.206-19.736-1.037-19.736-1.037s-3.951-0.197-6.691,1.654c-2.742,1.851-12.816,7.473-14.396,9.357
		c-1.576,1.885-4.457,7.918-6.65,9.77c-2.193,1.851-5.312,6.102-4.268,7.197c1.043,1.097,3.939,1.887,7.902,0.258
		c3.957-1.628,4.807-3.496,4.807-3.496s0.572-2.494,0.471-3.228"/>
	<path fill="none" stroke="#000000" stroke-width="1.5" stroke-linecap="round" stroke-linejoin="round" stroke-miterlimit="10" d="
		M523.449,51.866c0,0,8.789,1.511,13.16-0.184"/>
	<path fill="none" stroke="#000000" stroke-width="1.5" stroke-linecap="round" stroke-linejoin="round" stroke-miterlimit="10" d="
		M557.818,62.605c0,0,1.336-1.987,4.627-2.452"/>
	<path fill="none" stroke="#000000" stroke-width="1.5" stroke-linecap="round" stroke-linejoin="round" stroke-miterlimit="10" d="
		M497.607,56.973c-0.002,0,5.312-2.374,8.465-6.71"/>
	<path fill="none" stroke="#000000" stroke-width="1.5" stroke-linecap="round" stroke-linejoin="round" stroke-miterlimit="10" d="
		M509.337,44.853c0.047,0.728,0.041,1.947-0.451,2.596"/>
	<path fill="none" stroke="#000000" stroke-width="1.5" stroke-linecap="round" stroke-linejoin="round" stroke-miterlimit="10" d="
		M535.228,38.197c0,0-0.861,1.122-3.119,1.355"/>
	<path d="M526.869,52.293c0,0,1.396,2.429,1.559,3.447s-0.014,2.542-0.779,3.188c-0.766,0.646-17.273,13.93-20.727,14.673
		c-3.453,0.742-13.623,0.233-14.193-0.951c0,0,3.379-5.093,4.26-5.658c0,0,0.818,1.027,2.209,1.206
		c1.391,0.178,6.375,0.465,9.926-3.61c3.551-4.074,3.107-5.789,3.107-5.789s9.322-3.066,10.898-7.129
		C523.128,51.668,525.792,52.712,526.869,52.293z"/>
</g>
<g>
	<path d="M510.269,21.294h-4l-0.799,3.101h-3l4.1-13.04h3.521l4.1,13.04h-3.119L510.269,21.294z M509.669,18.995l-0.32-1.2
		c-0.188-0.652-0.361-1.347-0.529-2.08c-0.166-0.732-0.344-1.439-0.529-2.12h-0.08c-0.146,0.693-0.307,1.403-0.479,2.131
		c-0.176,0.727-0.355,1.417-0.541,2.069l-0.32,1.2H509.669z"/>
	<path d="M517.548,11.354h2.961v10.56h5.141v2.48h-8.102V11.354z"/>
	<path d="M530.031,13.834h-3.602v-2.479h10.119v2.479h-3.58v10.561h-2.938V13.834z"/>
	<path d="M543.25,18.834h-3.521v-2.08h3.521v-3.68h2.16v3.68h3.52v2.08h-3.52v3.681h-2.16V18.834z"/>
</g>
<g>
	<path d="M62.846,32.117L83.02,44.616L62.846,57.114V32.117z"/>
	<path d="M29.324,23.556L41.673,3.49l12.35,20.065L29.324,23.556L29.324,23.556z"/>
	<path d="M54.023,66.519L41.722,86.51L29.421,66.519H54.023z"/>
	<path d="M21.254,58.075L1,45.53l20.254-12.545V58.075z"/>
</g>
<g>
	<path d="M137.533,17.034c-0.91,0-1.69,0-2.6,0c0,5.98,0.26,12.09,0.26,17.94c2.34,0.779,3.9,2.08,5.07,3.899
		c0.91,1.561,1.43,4.03,0.91,6.37c0,0.26-0.26,0.65-0.26,0.91c0,0.13,0.65,0.65,0.78,0.91c2.08,2.34,4.03,4.55,6.11,6.76
		c-0.39-1.04-0.78-2.08-1.17-3.25c-0.26-1.04-0.78-2.6-0.26-3.77c0.39-0.78,1.43-1.04,2.73-0.91c0.91,0.26,1.95,0.649,2.73,1.04
		c1.69,0.779,3.25,1.689,4.81,2.6c0.52-1.17,2.21-1.69,4.03-1.56c1.3,0.13,2.73,0.649,3.64,0.909c1.17,0.521,2.21,0.91,3.38,1.301
		c1.04,0.52,2.21,0.779,3.38,1.3c2.08,0.91,4.16,1.95,5.98,3.12c1.82,1.3,3.64,2.6,4.94,4.42c1.17,1.819,1.69,4.42,2.47,6.631
		c0.91,2.21,2.08,4.029,3.77,5.33c1.82,1.43,3.9,2.21,6.11,3.25c2.21,0.91,4.291,1.82,6.371,2.729c-0.13,0.521-0.39,0.91-0.52,1.431
		c-2.08-0.91-4.16-1.82-6.24-2.73s-4.29-1.688-5.98-2.99c-2.73-1.948-4.29-4.68-5.46-8.061c-0.39-1.039-0.65-2.209-1.04-3.25
		c-0.78-2.08-2.47-3.51-4.29-4.81c-2.73-1.95-5.46-3.381-8.841-4.422c-2.21-0.778-4.16-1.818-6.63-2.47
		c-1.17-0.26-2.6-0.26-3.64,0.521c0.39,0.779,1.3,1.17,2.08,1.688c-0.26,0.521-0.65,0.91-0.91,1.301
		c-2.6-1.689-5.07-3.511-8.06-4.811c-1.04-0.521-2.08-1.04-3.38-0.91c-0.26,1.04,0.13,2.21,0.39,3.12
		c0.91,2.729,2.34,5.2,3.51,7.671c-0.26,0.39-0.78,0.649-1.17,0.91c-4.16-4.551-8.45-9.491-12.74-14.171
		c-1.04-1.17-2.08-2.34-3.25-3.51c-0.521-0.521-1.17-1.301-1.95-0.78c-0.39,0.26-0.78,0.649-1.04,1.04
		c-0.26,0.52-0.52,1.17-0.52,1.43c-0.13,0.65,0.65,1.82,0.91,2.21c2.34,4.812,5.331,9.102,8.32,13.392
		c0.78,1.17,1.69,2.34,2.47,3.51c0.91,1.301,1.82,2.34,2.73,3.511c1.69,2.6,2.86,5.33,3.38,8.97c-0.52,0.131-1.04,0.131-1.56,0.261
		c-0.13-1.431-0.52-2.729-1.04-4.029c-0.39-1.17-0.91-2.602-1.69-3.381c-0.26-0.129-0.65-0.391-1.17-0.261
		c-0.78,0.261-1.3,1.69-1.56,2.602c-0.78,2.08-1.04,4.55-1.3,7.021c-0.13,0.521-0.26,1.171-0.39,1.819c-0.26,0.78-0.52,1.562,0,2.21
		c0.39,0.65,1.3,1.17,2.08,1.562c2.34,1.3,4.811,2.729,7.15,3.77c4.94,2.341,10.4,4.291,16.121,5.851
		c1.82,0.65,3.77,1.171,5.72,1.561c0.52,0.131,1.17,0.131,1.56,0.261c0.65,0,1.17,0,1.69,0.13c2.73,0.65,4.55,2.86,5.98,4.94
		c-0.39,0.26-0.78,0.52-1.17,0.78c-0.65-1.041-1.43-1.82-2.34-2.602c-0.91-0.781-1.95-1.56-3.38-1.689
		c-0.65-0.131-1.43-0.131-2.21-0.261c-1.95-0.39-3.9-0.909-5.85-1.43c-6.37-1.82-12.48-4.16-18.071-6.761
		c-1.04-0.521-2.08-1.17-3.12-1.69c-1.04-0.52-2.08-1.039-3.25-1.688c-1.04-0.65-2.08-1.301-2.47-2.472
		c-0.52-1.299,0.13-2.729,0.39-4.159c0.39-2.989,0.65-5.591,1.56-8.189c0.52-1.43,1.17-2.86,2.86-3.12
		c-2.73-3.641-5.33-7.54-7.93-11.311c0.13,5.72,0.26,11.439,0.39,17.16c0.65,0,1.69,0,2.47,0c-1.17,5.199-2.47,10.141-3.77,15.341
		c-1.43-5.07-2.86-10.142-4.291-15.211c0.91,0,1.69,0,2.6,0c-0.13-6.631-0.26-13.261-0.39-19.892c-4.811-0.52-7.541-3.25-8.19-8.06
		c0-0.391,0-0.65,0-1.04c0.13-2.21,1.17-4.29,2.47-5.46c1.43-1.431,3.12-2.34,5.46-2.601c0-5.851-0.13-11.7-0.26-17.551
		c-0.78,0-1.82,0-2.6,0c1.3-5.07,2.6-10.271,3.9-15.341C134.673,6.894,136.103,11.964,137.533,17.034z M132.593,36.275
		c-2.08,0-3.771,0.91-4.811,2.21c-1.17,1.17-2.08,2.859-1.95,5.07c0,1.949,0.91,3.64,2.08,4.81s2.73,1.95,4.94,1.95
		c-0.78-1.561-1.95-3.25-2.73-5.07c-0.26-0.65-0.65-1.43-0.65-2.08c0-0.649,0.39-1.3,0.65-1.82c0.52-1.039,1.3-2.079,2.47-2.34
		c1.69-0.26,2.47,0.91,3.38,1.69c1.17,1.3,2.34,2.6,3.51,3.77c0,0.13,0.13,0.391,0.26,0.261c0.52-2.601-0.39-4.681-1.561-6.11
		C137.013,37.315,135.062,36.145,132.593,36.275z"/>
</g>
<g>
	<path d="M287.279,16.917c4.888,1.371,9.931,2.643,14.82,4.013c-4.982,1.407-10.092,2.786-15.172,4.038
		c-0.082-0.817-0.008-1.733-0.092-2.552c-8.262,0-16.525,0.001-24.788,0.002c0.027-0.126-0.042-0.409-0.042-0.409
		c-0.389,2.312-1.394,3.817-2.47,5.04c1.059,3.571,2.217,7.299,3.277,10.869c0,0,0.069,0.283,0.098,0.156
		c0.176-1.959,0.123-7.036,2.675-7.126c0.945-0.053,1.846,0.683,2.521,1.235c1.87,1.755,3.244,3.931,4.648,5.98
		c2.077-1.53,5.059,0.609,6.381,1.84c1.674,1.444,3.007,3.211,4.553,4.626c3.191,2.985,6.354,6.1,8.612,9.675
		c1.276,2.021,2.132,3.546,1.727,6.521c-0.217,1.551-0.658,2.916-0.506,4.018c0.302,2.199,1.889,4.024,3.28,5.539
		c1.519,1.541,2.852,3.309,3.932,5.019c0.588,0.934,1.178,1.865,1.33,2.966c-0.536,0.013-1.073,0.024-1.481,0.065
		c-1.537-3.812-4.688-6.39-7.003-9.71c-1.208-1.739-1.908-3.363-1.404-6.183c0.188-1.423,0.63-2.79,0.478-3.89
		c-0.18-0.976-0.642-1.878-1.23-2.812c-1.907-3.362-4.942-6.446-7.781-9.22c-0.773-0.708-1.575-1.288-2.32-2.122
		c-1.419-1.388-2.527-2.971-4.356-4.315c-0.352-0.214-0.929-0.609-1.408-0.852c-0.507-0.115-1.269-0.287-1.86-0.021
		c-0.017,0.663,0.531,1.186,0.798,1.778c0.098,0.155,0.393,0.622,0.393,0.622c-0.029,0.126-0.621,0.394-0.621,0.394
		c-0.312,0.195-0.468,0.294-0.75,0.363c-1.668-2.643-3.154-5.51-5.261-7.984c-0.45-0.368-0.772-0.707-1.194-1.202
		c-0.45-0.368-0.9-0.736-1.534-0.879c-0.581,0.801-0.712,1.971-0.912,2.858c-0.306,3.13-0.146,5.965,0.042,8.673
		c-0.536,0.013-0.975,0.18-1.538,0.319c-2.148-7.017-4.21-14.412-6.612-21.484c-0.042-0.409-0.308-1.002-0.446-1.567
		c-0.168-0.437-0.404-1.157-0.912-1.272c-0.606-0.27-1.228,0.123-1.693,0.418c-0.467,0.296-1.088,0.688-1.33,1.166
		c-0.143,0.635-0.021,1.861-0.036,2.524c0.119,2.425,0.393,4.752,0.667,7.08c0.549,4.656,1.184,8.931,2.169,13.418
		c0.193,1.51,0.667,2.948,0.859,4.458c0.259,2.99-0.036,6.656-1.401,10.347c-1.416-2.586-2.804-5.298-4.501-7.812
		c-0.785-1.244-1.697-2.517-2.765-3.689c-0.423-0.495-1.098-1.047-2.111-1.275c-1.016-0.229-2.312-0.389-2.454,0.245
		c-0.242,0.479,0.221,1.383,0.389,1.82c0.698,1.624,1.243,3.347,1.786,5.067c1.089,3.444,2.207,6.762,3.295,10.207
		c0.278,1.129,0.655,2.413,1.118,3.316c0.994,2.091,2.454,3.887,4.04,5.71c3.105,3.366,7.029,6.65,11.066,9.429
		c0.9,0.735,1.956,1.375,3.11,2.168c1.055,0.639,2.267,1.178,3.138,2.041c1.743,1.727,2.426,4.014,2.827,6.369
		c-0.565,0.139-0.974,0.18-1.538,0.318c-0.529-2.385-1.155-4.925-3.236-6.328c-0.704-0.425-1.438-0.724-2.238-1.304
		c-2.815-1.703-5.543-3.784-7.891-5.78c-3.728-2.974-7.339-6.455-9.696-10.186c-0.885-1.399-1.387-2.712-1.833-4.278
		c-1.493-4.602-2.89-9.049-4.382-13.649c-0.267-0.595-0.476-1.439-0.839-2.188c-0.238-0.721-0.602-1.469-0.712-2.16
		c-0.177-2.172,1.828-2.786,3.632-2.512c2.312,0.389,3.379,1.562,4.32,2.708c1.881,2.29,3.354,4.621,4.77,7.207
		c0,0,0.069,0.282,0.168,0.438c0.127,0.029,0.4-1.774,0.331-2.058c0.274-1.804,0.14-3.567-0.054-5.077
		c-0.458-2.102-0.945-4.078-1.276-6.15c-0.761-4.305-1.396-8.579-1.903-12.825c-3.591-1.21-5.289-3.727-5.928-6.802
		c-6.782-0.065-13.466,0.025-20.249-0.039c0.082,0.817,0.009,1.733-0.036,2.522c-5.044-1.271-10.06-2.67-15.23-3.97
		c0.028-0.127,0.028-0.127,0.028-0.127c5.081-1.252,10.219-2.758,15.299-4.011c-0.073,0.917,0.009,1.733-0.065,2.65
		c6.812-0.062,13.594,0.002,20.25,0.039c0.572-2.536,1.733-4.14,3.317-5.249c1.456-1.137,3.361-1.906,5.476-1.829
		c2.497,0.164,4.509,1.284,5.802,2.643c1.293,1.357,2.119,3.011,2.48,4.958c-0.099-0.155-0.069-0.282-0.013-0.536
		c8.263,0,16.525-0.001,24.761,0.125c0.073-0.917,0.146-1.833,0.064-2.651C287.024,16.859,287.15,16.889,287.279,16.917z
		 M260.058,18.236c-0.896-1.935-2.609-3.788-5.301-4.261c-1.932-0.304-3.752,0.086-5.023,0.999
		c-1.371,0.757-2.476,2.105-3.031,3.979c-0.585,2-0.196,3.821,0.562,5.191c0.757,1.371,1.697,2.516,3.514,3.324
		c-0.055-0.944-0.205-2.045-0.229-3.116c-0.024-1.072-0.147-2.299,0.208-3.285c0.028-0.127,0.057-0.253,0.086-0.38
		c0.454-0.831,1.231-1.322,1.979-1.687c0.777-0.491,1.526-0.854,2.667-0.597c1.396,0.314,1.674,1.444,1.981,2.446
		c0.601,1.469,1.046,3.034,1.521,4.475c0.764-1.027,1.305-2.238,1.464-3.535C260.643,20.368,260.365,19.238,260.058,18.236z"/>
</g>
</svg>
