<?xml version="1.0" encoding="utf-8"?>
<!-- Generator: Adobe Illustrator 16.0.1, SVG Export Plug-In . SVG Version: 6.00 Build 0)  -->
<!DOCTYPE svg PUBLIC "-//W3C//DTD SVG 1.1//EN" "http://www.w3.org/Graphics/SVG/1.1/DTD/svg11.dtd">
<svg version="1.1" id="Layer_1" xmlns="http://www.w3.org/2000/svg" xmlns:xlink="http://www.w3.org/1999/xlink" x="0px" y="0px"
	 width="32px" height="32px" viewBox="0 0 32 32" enable-background="new 0 0 32 32" xml:space="preserve">
<g>
	<path fill="#FFFFFF" d="M16,3.107C8.874,3.107,3.107,8.875,3.107,16c0,7.127,5.768,12.894,12.893,12.894
		c7.127,0,12.894-5.768,12.894-12.894C28.894,8.874,23.126,3.107,16,3.107z M16,32C7.163,32,0,24.837,0,16C0,7.164,7.163,0,16,0
		s16,7.164,16,16C32,24.837,24.837,32,16,32z M22.788,11.647l2.494,2.506l-9.36,9.316l-9.36-9.316l2.494-2.506l6.866,6.833
		L22.788,11.647z"/>
</g>
</svg>
