<?xml version="1.0" encoding="utf-8"?>
<!-- Generator: Adobe Illustrator 16.0.1, SVG Export Plug-In . SVG Version: 6.00 Build 0)  -->
<!DOCTYPE svg PUBLIC "-//W3C//DTD SVG 1.1//EN" "http://www.w3.org/Graphics/SVG/1.1/DTD/svg11.dtd">
<svg version="1.1" id="Layer_1" xmlns="http://www.w3.org/2000/svg" xmlns:xlink="http://www.w3.org/1999/xlink" x="0px" y="0px"
	 width="32px" height="32px" viewBox="0 0 32 32" enable-background="new 0 0 32 32" xml:space="preserve">
<g>
	<path fill="#FFFFFF" d="M16,28.894c7.126,0,12.894-5.767,12.894-12.894c0-7.125-5.767-12.893-12.894-12.893
		C8.875,3.107,3.107,8.874,3.107,16C3.107,23.126,8.873,28.894,16,28.894z M16,32C7.164,32,0,24.837,0,16S7.164,0,16,0
		c8.837,0,16,7.163,16,16S24.837,32,16,32z M18.48,15.922l-6.834-6.866l2.506-2.494l9.316,9.36l-9.316,9.36l-2.506-2.494
		L18.48,15.922z"/>
</g>
</svg>
